<svg width="132" height="132" viewBox="0 0 132 132" fill="none" xmlns="http://www.w3.org/2000/svg">
  <defs>
    <linearGradient id="copter-body" x1="30" y1="100" x2="96" y2="32" gradientUnits="userSpaceOnUse">
      <stop stop-color="#1F324F"/>
      <stop offset="1" stop-color="#263D62"/>
    </linearGradient>
    <linearGradient id="rotor-glow" x1="18" y1="66" x2="114" y2="66" gradientUnits="userSpaceOnUse">
      <stop stop-color="#2F4D7B" stop-opacity="0.25"/>
      <stop offset="1" stop-color="#61A5FF" stop-opacity="0.12"/>
    </linearGradient>
  </defs>
  <circle cx="66" cy="66" r="64" fill="white"/>
  <circle cx="66" cy="66" r="63" stroke="#E6EEF5" stroke-width="2"/>

  <path d="M87.4 78.5c-6.6 6-13.8 8.8-21.4 8.8-7.6 0-14.8-2.8-21.4-8.8 1-9.8 3.8-17.3 8.6-22.6 4.8-5.4 8.9-8 12.8-8 3.8 0 8 2.6 12.7 8 4.7 5.2 7.6 12.8 8.7 22.6Z" fill="url(#copter-body)"/>
  <path d="M66.2 59.6c-3.4 0-6.2 2.8-6.2 6.2 0 3.4 2.8 6.2 6.2 6.2 3.4 0 6.2-2.8 6.2-6.2 0-3.4-2.8-6.2-6.2-6.2Z" fill="#A4D2FF"/>
  <path d="M66.2 61.4c-2.5 0-4.5 2-4.5 4.5 0 2.5 2 4.4 4.5 4.4 2.4 0 4.4-2 4.4-4.4 0-2.5-2-4.5-4.4-4.5Z" fill="#1E2F4A"/>

  <path d="M31.5 62.8c-7.4 0-13.5-5.8-13.5-13 0-7.2 6-13 13.5-13 7.4 0 13.5 5.8 13.5 13 0 7.2-6 13-13.5 13Zm0-20.4c-4.2 0-7.6 3.3-7.6 7.4 0 4 3.4 7.3 7.6 7.3 4.2 0 7.6-3.3 7.6-7.3 0-4-3.4-7.4-7.6-7.4Z" fill="#1E2F4A"/>
  <path d="M100.9 62.8c-7.4 0-13.5-5.8-13.5-13 0-7.2 6-13 13.5-13 7.5 0 13.5 5.8 13.5 13 0 7.2-6 13-13.5 13Zm0-20.4c-4.2 0-7.6 3.3-7.6 7.4 0 4 3.4 7.3 7.6 7.3 4.2 0 7.6-3.3 7.6-7.3 0-4-3.4-7.4-7.6-7.4Z" fill="#1E2F4A"/>

  <path d="M66 88.7c-8.5 0-18.5-3.4-30.1-10.3l3-5c10.5 6.3 19.5 9.5 27.1 9.5 7.5 0 16.4-3.1 26.8-9.3l3.2 5c-11.4 6.9-21.5 10.1-30 10.1Z" fill="url(#rotor-glow)"/>
  <path d="M31.2 50.4c3.5 0 6.4-2.8 6.4-6.2 0-3.4-2.9-6.2-6.4-6.2-3.5 0-6.4 2.8-6.4 6.2 0 3.4 2.9 6.2 6.4 6.2Z" fill="#D7E5F5"/>
  <path d="M101.1 50.4c3.5 0 6.4-2.8 6.4-6.2 0-3.4-2.9-6.2-6.4-6.2-3.6 0-6.4 2.8-6.4 6.2 0 3.4 2.9 6.2 6.4 6.2Z" fill="#D7E5F5"/>

  <path d="M45 50.2c-0.7 0-1.4-0.3-1.9-0.9-0.8-1-0.6-2.5 0.4-3.2l15.6-11.6c1-0.8 2.5-0.6 3.3 0.4 0.8 1 0.6 2.5-0.4 3.2L46.4 49.7c-0.4 0.4-1 0.5-1.4 0.5Z" fill="#223454"/>
  <path d="M86.7 50.2c-0.5 0-1.1-0.1-1.4-0.5L71.1 38.1c-1-0.8-1.1-2.2-0.4-3.2 0.8-1 2.3-1.2 3.3-0.4L89.6 46c1 0.8 1.1 2.2 0.4 3.2-0.4 0.6-1.1 0.9-1.8 0.9Z" fill="#223454"/>
</svg>

